Subtitulos pegados en el mp4, español México. Disfrutenla

Format                                   : MPEG-4
Format profile                           : Apple TV
Codec ID                                 : M4VH
File size                                : 4.10 GiB
Duration                                 : 1h 53mn
Overall bit rate                         : 5 184 Kbps
Encoded date                             : UTC 2012-12-02 17:33:11
Tagged date                              : UTC 2012-12-02 17:35:39

Video
ID                                       : 1
Format                                   : AVC
Format/Info                              : Advanced Video Codec
Format profile                           : High@L3.1
Format settings, CABAC                   : No
Format settings, ReFrames                : 2 frames
Format settings, GOP                     : M=2, N=120
Codec ID                                 : avc1
Codec ID/Info                            : Advanced Video Coding
Duration                                 : 1h 53mn
Bit rate                                 : 5 054 Kbps
Width                                    : 1 280 pixels
Height                                   : 720 pixels
Display aspect ratio                     : 16:9
Frame rate mode                          : Constant
Frame rate                               : 23.976 fps
Color space                              : YUV
Chroma subsampling                       : 4:2:0
Bit depth                                : 8 bits
Scan type                                : Progressive
Bits/(Pixel*Frame)                       : 0.229
Stream size                              : 4.00 GiB (98%)
Language                                 : English
Encoded date                             : UTC 2012-12-02 17:33:05
Tagged date                              : UTC 2012-12-02 17:35:39
Color primaries                          : BT.709
Transfer characteristics                 : BT.709
Matrix coefficients                      : BT.709

Audio
ID                                       : 2
Format                                   : AAC
Format/Info                              : Advanced Audio Codec
Format profile                           : LC
Codec ID                                 : 40
Duration                                 : 1h 53mn
Source duration                          : 1h 53mn
Bit rate mode                            : Constant
Bit rate                                 : 128 Kbps
Channel(s)                               : 2 channels
Channel positions                        : Front: L R
Sampling rate                            : 44.1 KHz
Compression mode                         : Lossy
Delay relative to video                  : 42ms
Stream size                              : 101 MiB (2%)
Source stream size                       : 101 MiB (2%)
Language                                 : English
Encoded date                             : UTC 2012-12-02 17:33:06
Tagged date                              : UTC 2012-12-02 17:35:39
